<?xml version="1.0" encoding="UTF-8" standalone="no"?>
<!-- Created with Inkscape (http://www.inkscape.org/) -->

<svg
   xmlns:dc="http://purl.org/dc/elements/1.1/"
   xmlns:cc="http://creativecommons.org/ns#"
   xmlns:rdf="http://www.w3.org/1999/02/22-rdf-syntax-ns#"
   xmlns:svg="http://www.w3.org/2000/svg"
   xmlns="http://www.w3.org/2000/svg"
   xmlns:sodipodi="http://sodipodi.sourceforge.net/DTD/sodipodi-0.dtd"
   xmlns:inkscape="http://www.inkscape.org/namespaces/inkscape"
   width="500"
   height="500"
   viewBox="0 0 132.29166 132.29167"
   version="1.1"
   id="svg8"
   inkscape:version="0.92.1 r15371"
   sodipodi:docname="logo_header_skylight_animation.svg">
  <defs
     id="defs2" />
  <sodipodi:namedview
     id="base"
     pagecolor="#ffffff"
     bordercolor="#666666"
     borderopacity="1.0"
     inkscape:pageopacity="0.0"
     inkscape:pageshadow="2"
     inkscape:zoom="0.35"
     inkscape:cx="212.72488"
     inkscape:cy="94.502774"
     inkscape:document-units="px"
     inkscape:current-layer="layer1"
     showgrid="false"
     units="px"
     inkscape:window-width="1024"
     inkscape:window-height="746"
     inkscape:window-x="-8"
     inkscape:window-y="-8"
     inkscape:window-maximized="1" />
  <metadata
     id="metadata5">
    <rdf:RDF>
      <cc:Work
         rdf:about="">
        <dc:format>image/svg+xml</dc:format>
        <dc:type
           rdf:resource="http://purl.org/dc/dcmitype/StillImage" />
        <dc:title />
      </cc:Work>
    </rdf:RDF>
  </metadata>
  <g
     inkscape:label="Layer 1"
     inkscape:groupmode="layer"
     id="layer1"
     transform="translate(0,-164.70832)">
    <path
       style="display:inline;fill:#008ef1;fill-opacity:1;stroke:none;stroke-width:0.112866;stroke-linecap:butt;stroke-linejoin:miter;stroke-miterlimit:4;stroke-dasharray:none;stroke-opacity:1"
       d="m 65.98098,238.6561 27.584447,-12.04844 13.864783,-53.53913 -71.633387,49.44403 -6.731043,36.92012 37.820186,-17.23216 18.023972,4.2232 -16.440285,17.79774 -39.403873,-4.78878 40.082607,9.38903 22.85048,-24.73576 -26.017887,-5.42985 -33.390623,16.76581 6.402867,-31.03539 61.237946,-39.63961 -10.451873,38.98118 z"
       id="path4504-7"
       inkscape:connector-curvature="0"
       sodipodi:nodetypes="ccccccccccccccccc"
       inkscape:export-xdpi="96"
       inkscape:export-ydpi="96" />
    <rect
       style="display:inline;opacity:1;fill:#ffffff;fill-opacity:1;stroke:#2c2c2c;stroke-width:0.42041445;stroke-linejoin:round;stroke-miterlimit:4;stroke-dasharray:none;stroke-opacity:1"
       id="rect5222-2"
       width="122.0839"
       height="20.205023"
       x="5.3613572"
       y="274.39447"
       ry="3.1327496"
       inkscape:export-xdpi="96"
       inkscape:export-ydpi="96"
       inkscape:export-filename="D:\BLOG\Project Design\#Design\DG\path5365-6-7.png" />
    <g
       aria-label="&gt;"
       transform="matrix(0.45071479,0,0,0.45071479,-1673.4767,338.35331)"
       style="font-style:normal;font-weight:normal;font-size:40px;line-height:1.25;font-family:sans-serif;letter-spacing:0px;word-spacing:0px;display:inline;fill:#555554;fill-opacity:1;stroke:none"
       id="flowRoot5224-8">
      <path
         inkscape:connector-curvature="0"
         d="m 3752.266,-108.89023 v -1.44 q 3.8,-2.16 7.56,-4.32 3.76,-2.2 7.56,-4.36 -3.8,-2.16 -7.56,-4.32 -3.76,-2.2 -7.56,-4.36 v -1.44 q 4.4,2.52 8.76,5.08 4.36,2.52 8.76,5.04 -4.4,2.52 -8.76,5.08 -4.36,2.52 -8.76,5.04 z"
         style="font-style:normal;font-variant:normal;font-weight:normal;font-stretch:normal;font-family:'Josefin Sans';-inkscape-font-specification:'Josefin Sans';fill:#555554;fill-opacity:1"
         id="path4582" />
    </g>
    <g
       aria-label="SkyLight_Animation"
       transform="matrix(0.24272384,0,0,0.24272384,-20.778132,125.42015)"
       style="font-style:normal;font-weight:normal;font-size:40px;line-height:1.25;font-family:sans-serif;letter-spacing:0px;word-spacing:0px;display:inline;fill:#555554;fill-opacity:1;stroke:none"
       id="flowRoot5144-2-1">
      <path
         inkscape:connector-curvature="0"
         d="m 217.85836,645.3943 q -0.2,0.2 -0.32,0.44 -0.12,0.24 -0.32,0.44 -0.36,-0.32 -0.92,-0.68 -0.52,-0.4 -1.24,-0.72 -0.68,-0.36 -1.56,-0.56 -0.88,-0.24 -1.88,-0.24 -1.48,0 -2.6,0.52 -1.08,0.48 -1.84,1.32 -0.72,0.84 -1.08,1.92 -0.36,1.08 -0.36,2.24 0,1.2 0.36,2.08 0.36,0.84 1.04,1.44 0.68,0.6 1.64,1.04 0.96,0.44 2.16,0.84 1.24,0.44 2.84,0.96 1.6,0.48 3,1.4 1.44,0.88 2.4,2.28 1,1.4 1,3.6 0,1.76 -0.68,3.2 -0.64,1.44 -1.8,2.48 -1.16,1 -2.72,1.56 -1.52,0.52 -3.24,0.52 -1.56,0 -2.88,-0.4 -1.28,-0.44 -2.28,-1 -1,-0.6 -1.72,-1.2 -0.72,-0.64 -1.12,-1.08 l 0.8,-0.8 q 0.56,0.6 1.28,1.2 0.72,0.6 1.6,1.08 0.88,0.48 1.92,0.8 1.04,0.32 2.28,0.32 1.44,0 2.76,-0.44 1.36,-0.48 2.4,-1.32 1.04,-0.84 1.64,-2.04 0.64,-1.24 0.64,-2.76 0,-1.84 -0.8,-3.04 -0.8,-1.24 -2.04,-2.04 -1.2,-0.8 -2.64,-1.28 -1.44,-0.48 -2.76,-0.92 -0.72,-0.2 -1.76,-0.56 -1.04,-0.4 -2,-1.08 -0.96,-0.72 -1.68,-1.76 -0.68,-1.08 -0.76,-2.68 -0.08,-1.32 0.28,-2.64 0.4,-1.36 1.24,-2.44 0.88,-1.08 2.24,-1.72 1.4,-0.68 3.32,-0.68 1.52,0 3.04,0.52 1.52,0.52 3.12,1.88 z"
         style="font-style:normal;font-variant:normal;font-weight:normal;font-stretch:normal;font-family:'Josefin Sans';-inkscape-font-specification:'Josefin Sans';fill:#555554;fill-opacity:1"
         id="path4545" />
      <path
         inkscape:connector-curvature="0"
         d="m 235.85148,655.7943 q 0.2,0.2 0.32,0.36 0.16,0.16 0.36,0.36 -1.52,1.4 -2.88,2.72 -1.32,1.28 -2.8,2.68 l 6.72,9.24 h -1.32 q -1.56,-2.16 -3.16,-4.24 -1.56,-2.08 -3.12,-4.24 -0.68,0.64 -1.36,1.32 -0.68,0.64 -1.4,1.28 v 5.88 h -1.08 v -30 h 1.08 v 22.68 q 2.24,-2.08 4.32,-4 2.08,-1.96 4.32,-4.04 z"
         style="font-style:normal;font-variant:normal;font-weight:normal;font-stretch:normal;font-family:'Josefin Sans';-inkscape-font-specification:'Josefin Sans';fill:#555554;fill-opacity:1"
         id="path4547" />
      <path
         inkscape:connector-curvature="0"
         d="m 246.30023,681.1543 h -1.28 q 1.28,-2.48 2.48,-4.96 1.24,-2.44 2.48,-4.92 l -7.56,-15.12 h 1.24 q 1.76,3.48 3.52,6.96 1.76,3.48 3.44,7 1.64,-3.52 3.4,-7 1.76,-3.48 3.52,-6.96 h 1.24 q -3.12,6.28 -6.24,12.52 -3.12,6.2 -6.24,12.48 z"
         style="font-style:normal;font-variant:normal;font-weight:normal;font-stretch:normal;font-family:'Josefin Sans';-inkscape-font-specification:'Josefin Sans';fill:#555554;fill-opacity:1"
         id="path4549" />
      <path
         inkscape:connector-curvature="0"
         d="m 263.87148,671.1543 v -28 h 1.12 v 26.92 h 15.84 v 1.08 z"
         style="font-style:normal;font-variant:normal;font-weight:normal;font-stretch:normal;font-family:'Josefin Sans';-inkscape-font-specification:'Josefin Sans';fill:#555554;fill-opacity:1"
         id="path4551" />
      <path
         inkscape:connector-curvature="0"
         d="m 286.74148,650.9943 q 0,-0.44 0.32,-0.76 0.32,-0.32 0.76,-0.32 0.4,0 0.72,0.32 0.32,0.32 0.32,0.76 0,0.44 -0.32,0.76 -0.32,0.28 -0.72,0.28 -0.44,0 -0.76,-0.28 -0.32,-0.32 -0.32,-0.76 z m 1.6,20.16 h -1.12 v -15 h 1.12 z"
         style="font-style:normal;font-variant:normal;font-weight:normal;font-stretch:normal;font-family:'Josefin Sans';-inkscape-font-specification:'Josefin Sans';fill:#555554;fill-opacity:1"
         id="path4553" />
      <path
         inkscape:connector-curvature="0"
         d="m 294.44523,663.6343 q 0,1.4 0.52,2.64 0.52,1.2 1.4,2.12 0.92,0.88 2.12,1.4 1.24,0.52 2.64,0.52 1.4,0 2.64,-0.52 1.24,-0.52 2.16,-1.4 0.92,-0.92 1.44,-2.12 0.52,-1.24 0.52,-2.64 0,-1.4 -0.52,-2.6 -0.52,-1.24 -1.44,-2.16 -0.92,-0.92 -2.16,-1.44 -1.24,-0.52 -2.64,-0.52 -1.4,0 -2.64,0.52 -1.2,0.52 -2.12,1.44 -0.88,0.92 -1.4,2.16 -0.52,1.2 -0.52,2.6 z m 13.68,-7.48 h 0.84 v 15.72 0.32 q 0,2.12 -0.6,3.76 -0.56,1.64 -1.6,2.76 -1,1.16 -2.36,1.76 -1.36,0.64 -2.92,0.68 -1.68,-0.08 -3.4,-0.64 -1.68,-0.52 -2.72,-1.76 0.2,-0.2 0.4,-0.4 0.24,-0.16 0.44,-0.36 0.92,1.08 2.36,1.56 1.48,0.48 2.88,0.48 1.32,0 2.48,-0.56 1.2,-0.56 2.04,-1.6 0.88,-1 1.4,-2.44 0.52,-1.44 0.52,-3.2 v -2.96 q 0,-0.56 0.04,-1.08 0.04,-0.52 0.04,-1.08 -0.36,0.88 -1.04,1.68 -0.64,0.76 -1.52,1.36 -0.88,0.56 -2,0.92 -1.08,0.32 -2.28,0.32 -1.64,0 -3.08,-0.6 -1.4,-0.6 -2.48,-1.64 -1.04,-1.08 -1.64,-2.48 -0.6,-1.4 -0.6,-3.04 0,-1.6 0.6,-3 0.6,-1.44 1.64,-2.48 1.08,-1.08 2.48,-1.68 1.44,-0.64 3.08,-0.64 1.2,0 2.28,0.36 1.08,0.32 1.96,0.92 0.92,0.6 1.56,1.4 0.68,0.8 1.04,1.68 0,-1 0.04,-2 0.04,-1 0.12,-2.04 z"
         style="font-style:normal;font-variant:normal;font-weight:normal;font-stretch:normal;font-family:'Josefin Sans';-inkscape-font-specification:'Josefin Sans';fill:#555554;fill-opacity:1"
         id="path4555" />
      <path
         inkscape:connector-curvature="0"
         d="m 316.46836,641.1543 h 1.12 v 17.12 l -0.12,1.8 q 0.8,-1.92 2.52,-3.04 1.76,-1.16 4.04,-1.16 2.16,0 3.4,1.24 1.28,1.24 1.36,3.24 v 10.8 h -1.12 v -10.72 q -0.08,-1.4 -1,-2.4 -0.92,-1 -2.64,-1.08 -1.28,0 -2.48,0.44 -1.16,0.4 -2.04,1.16 -0.88,0.76 -1.4,1.84 -0.52,1.04 -0.52,2.28 v 8.48 h -1.12 z"
         style="font-style:normal;font-variant:normal;font-weight:normal;font-stretch:normal;font-family:'Josefin Sans';-inkscape-font-specification:'Josefin Sans';fill:#555554;fill-opacity:1"
         id="path4557" />
      <path
         inkscape:connector-curvature="0"
         d="m 336.87773,646.3943 h 1.08 v 9.96 h 4.88 v 1.08 h -4.88 v 13.72 h -1.08 v -13.72 h -3.52 v -1.08 h 3.52 z"
         style="font-style:normal;font-variant:normal;font-weight:normal;font-stretch:normal;font-family:'Josefin Sans';-inkscape-font-specification:'Josefin Sans';fill:#555554;fill-opacity:1"
         id="path4559" />
      <path
         inkscape:connector-curvature="0"
         d="m 362.92773,671.1543 h -16 v -1.08 h 16 z"
         style="font-style:normal;font-variant:normal;font-weight:normal;font-stretch:normal;font-family:'Josefin Sans';-inkscape-font-specification:'Josefin Sans';fill:#555554;fill-opacity:1"
         id="path4561" />
      <path
         inkscape:connector-curvature="0"
         d="m 382.07211,645.4343 -0.36,-1.08 q -1.24,3.44 -2.72,6.76 -1.44,3.28 -2.84,6.64 h 11.12 q -1.28,-3.12 -2.6,-6.16 -1.28,-3.04 -2.6,-6.16 z m 12.04,25.72 h -1.12 q -1.32,-3.08 -2.64,-6.16 -1.28,-3.08 -2.6,-6.16 h -12.08 q -1.28,3.08 -2.6,6.16 -1.28,3.08 -2.6,6.16 h -1.16 q 3.12,-7.36 6.2,-14.64 3.08,-7.28 6.2,-14.64 3.12,7.36 6.2,14.64 3.08,7.28 6.2,14.64 z"
         style="font-style:normal;font-variant:normal;font-weight:normal;font-stretch:normal;font-family:'Josefin Sans';-inkscape-font-specification:'Josefin Sans';fill:#555554;fill-opacity:1"
         id="path4563" />
      <path
         inkscape:connector-curvature="0"
         d="m 400.92148,656.1543 h 1.04 v 1.76 q -0.04,0.56 -0.04,1.08 0,0.52 0,1.08 0.8,-1.92 2.56,-3.04 1.76,-1.16 4,-1.16 2.16,0 3.4,1.24 1.28,1.24 1.36,3.24 v 10.8 h -1.12 v -10.72 q -0.08,-1.4 -1,-2.4 -0.92,-1 -2.64,-1.08 -1.28,0 -2.48,0.44 -1.16,0.4 -2.04,1.16 -0.88,0.76 -1.4,1.84 -0.52,1.04 -0.52,2.28 v 8.48 h -1.12 z"
         style="font-style:normal;font-variant:normal;font-weight:normal;font-stretch:normal;font-family:'Josefin Sans';-inkscape-font-specification:'Josefin Sans';fill:#555554;fill-opacity:1"
         id="path4565" />
      <path
         inkscape:connector-curvature="0"
         d="m 419.00711,650.9943 q 0,-0.44 0.32,-0.76 0.32,-0.32 0.76,-0.32 0.4,0 0.72,0.32 0.32,0.32 0.32,0.76 0,0.44 -0.32,0.76 -0.32,0.28 -0.72,0.28 -0.44,0 -0.76,-0.28 -0.32,-0.32 -0.32,-0.76 z m 1.6,20.16 h -1.12 v -15 h 1.12 z"
         style="font-style:normal;font-variant:normal;font-weight:normal;font-stretch:normal;font-family:'Josefin Sans';-inkscape-font-specification:'Josefin Sans';fill:#555554;fill-opacity:1"
         id="path4567" />
      <path
         inkscape:connector-curvature="0"
         d="m 428.03086,656.1543 h 1.04 v 1.76 q -0.04,0.56 -0.04,1.08 0,0.52 0,1.08 0.8,-1.92 2.52,-3.04 1.76,-1.16 4.04,-1.16 2.04,0 3.28,1.12 1.24,1.08 1.44,2.88 0.84,-1.8 2.56,-2.88 1.76,-1.12 3.96,-1.12 2.16,0 3.4,1.24 1.24,1.24 1.32,3.24 v 10.8 h -1.12 v -10.72 q -0.08,-1.4 -1,-2.4 -0.92,-1 -2.64,-1.08 -1.28,0 -2.44,0.44 -1.12,0.4 -2,1.12 -0.88,0.72 -1.44,1.76 -0.52,1 -0.56,2.2 v 8.68 h -1.12 v -10.72 q -0.08,-1.4 -1,-2.4 -0.92,-1 -2.64,-1.08 -1.28,0 -2.48,0.44 -1.16,0.4 -2.04,1.16 -0.88,0.76 -1.4,1.84 -0.52,1.04 -0.52,2.28 v 8.48 h -1.12 z"
         style="font-style:normal;font-variant:normal;font-weight:normal;font-stretch:normal;font-family:'Josefin Sans';-inkscape-font-specification:'Josefin Sans';fill:#555554;fill-opacity:1"
         id="path4569" />
      <path
         inkscape:connector-curvature="0"
         d="m 458.58586,663.6343 q 0,1.4 0.52,2.64 0.52,1.2 1.4,2.12 0.92,0.88 2.12,1.4 1.24,0.52 2.64,0.52 1.4,0 2.64,-0.52 1.24,-0.52 2.16,-1.4 0.92,-0.92 1.44,-2.12 0.52,-1.24 0.52,-2.64 0,-1.4 -0.52,-2.6 -0.52,-1.24 -1.44,-2.16 -0.92,-0.92 -2.16,-1.44 -1.24,-0.52 -2.64,-0.52 -1.4,0 -2.64,0.52 -1.2,0.52 -2.12,1.44 -0.88,0.92 -1.4,2.16 -0.52,1.2 -0.52,2.6 z m -1.12,0 q 0,-1.6 0.6,-3 0.6,-1.44 1.64,-2.48 1.08,-1.08 2.48,-1.68 1.44,-0.64 3.08,-0.64 1.2,0 2.28,0.36 1.08,0.32 1.96,0.92 0.92,0.6 1.56,1.4 0.68,0.8 1.04,1.68 0,-1 0.04,-2 0.04,-1 0.12,-2.04 h 0.84 v 15 h -1 v -2 -2.08 q -0.68,1.8 -2.52,3.08 -1.8,1.24 -4.32,1.28 -1.64,0 -3.08,-0.6 -1.4,-0.64 -2.48,-1.68 -1.04,-1.04 -1.64,-2.44 -0.6,-1.44 -0.6,-3.08 z"
         style="font-style:normal;font-variant:normal;font-weight:normal;font-stretch:normal;font-family:'Josefin Sans';-inkscape-font-specification:'Josefin Sans';fill:#555554;fill-opacity:1"
         id="path4571" />
      <path
         inkscape:connector-curvature="0"
         d="m 480.70586,646.3943 h 1.08 v 9.96 h 4.88 v 1.08 h -4.88 v 13.72 h -1.08 v -13.72 h -3.52 v -1.08 h 3.52 z"
         style="font-style:normal;font-variant:normal;font-weight:normal;font-stretch:normal;font-family:'Josefin Sans';-inkscape-font-specification:'Josefin Sans';fill:#555554;fill-opacity:1"
         id="path4573" />
      <path
         inkscape:connector-curvature="0"
         d="m 489.47586,650.9943 q 0,-0.44 0.32,-0.76 0.32,-0.32 0.76,-0.32 0.4,0 0.72,0.32 0.32,0.32 0.32,0.76 0,0.44 -0.32,0.76 -0.32,0.28 -0.72,0.28 -0.44,0 -0.76,-0.28 -0.32,-0.32 -0.32,-0.76 z m 1.6,20.16 h -1.12 v -15 h 1.12 z"
         style="font-style:normal;font-variant:normal;font-weight:normal;font-stretch:normal;font-family:'Josefin Sans';-inkscape-font-specification:'Josefin Sans';fill:#555554;fill-opacity:1"
         id="path4575" />
      <path
         inkscape:connector-curvature="0"
         d="m 495.53961,663.6343 q 0,-1.6 0.6,-3.04 0.64,-1.44 1.68,-2.48 1.04,-1.08 2.44,-1.68 1.44,-0.64 3.08,-0.64 1.64,0 3.08,0.64 1.44,0.6 2.48,1.68 1.08,1.04 1.68,2.48 0.64,1.44 0.64,3.04 0,1.64 -0.64,3.08 -0.6,1.4 -1.68,2.44 -1.04,1.04 -2.48,1.68 -1.44,0.6 -3.08,0.6 -1.64,0 -3.08,-0.6 -1.4,-0.64 -2.44,-1.68 -1.04,-1.04 -1.68,-2.44 -0.6,-1.44 -0.6,-3.08 z m 1.12,0 q 0,1.4 0.52,2.64 0.52,1.2 1.4,2.12 0.92,0.88 2.12,1.4 1.24,0.52 2.64,0.52 1.4,0 2.6,-0.52 1.24,-0.52 2.16,-1.4 0.92,-0.92 1.44,-2.12 0.52,-1.24 0.52,-2.64 0,-1.4 -0.52,-2.6 -0.52,-1.24 -1.44,-2.16 -0.92,-0.92 -2.16,-1.44 -1.2,-0.52 -2.6,-0.52 -1.4,0 -2.64,0.52 -1.2,0.52 -2.12,1.44 -0.88,0.92 -1.4,2.16 -0.52,1.2 -0.52,2.6 z"
         style="font-style:normal;font-variant:normal;font-weight:normal;font-stretch:normal;font-family:'Josefin Sans';-inkscape-font-specification:'Josefin Sans';fill:#555554;fill-opacity:1"
         id="path4577" />
      <path
         inkscape:connector-curvature="0"
         d="m 517.24961,656.1543 h 1.04 v 1.76 q -0.04,0.56 -0.04,1.08 0,0.52 0,1.08 0.8,-1.92 2.56,-3.04 1.76,-1.16 4,-1.16 2.16,0 3.4,1.24 1.28,1.24 1.36,3.24 v 10.8 h -1.12 v -10.72 q -0.08,-1.4 -1,-2.4 -0.92,-1 -2.64,-1.08 -1.28,0 -2.48,0.44 -1.16,0.4 -2.04,1.16 -0.88,0.76 -1.4,1.84 -0.52,1.04 -0.52,2.28 v 8.48 h -1.12 z"
         style="font-style:normal;font-variant:normal;font-weight:normal;font-stretch:normal;font-family:'Josefin Sans';-inkscape-font-specification:'Josefin Sans';fill:#555554;fill-opacity:1"
         id="path4579" />
    </g>
    <g
       aria-label="_"
       transform="matrix(0.45071479,0,0,0.45071479,-1581.4643,338.56149)"
       style="font-style:normal;font-weight:normal;font-size:40px;line-height:1.25;font-family:sans-serif;letter-spacing:0px;word-spacing:0px;display:inline;fill:#555554;fill-opacity:1;stroke:none"
       id="flowRoot5224-9-5">
      <path
         inkscape:connector-curvature="0"
         d="m 3767.666,-109.49023 h -16 v -1.08 h 16 z"
         style="font-style:normal;font-variant:normal;font-weight:normal;font-stretch:normal;font-family:'Josefin Sans';-inkscape-font-specification:'Josefin Sans';fill:#555554;fill-opacity:1"
         id="path4542" />
    </g>
    <g
       aria-label="SkyLight_Animation"
       transform="matrix(0.24272384,0,0,0.24272384,-21.151825,125.39599)"
       style="font-style:normal;font-weight:normal;font-size:40px;line-height:1.25;font-family:sans-serif;letter-spacing:0px;word-spacing:0px;display:inline;fill:#000000;fill-opacity:1;stroke:none"
       id="flowRoot5144-2-4-7">
      <path
         inkscape:connector-curvature="0"
         d="m 217.85836,645.3943 q -0.2,0.2 -0.32,0.44 -0.12,0.24 -0.32,0.44 -0.36,-0.32 -0.92,-0.68 -0.52,-0.4 -1.24,-0.72 -0.68,-0.36 -1.56,-0.56 -0.88,-0.24 -1.88,-0.24 -1.48,0 -2.6,0.52 -1.08,0.48 -1.84,1.32 -0.72,0.84 -1.08,1.92 -0.36,1.08 -0.36,2.24 0,1.2 0.36,2.08 0.36,0.84 1.04,1.44 0.68,0.6 1.64,1.04 0.96,0.44 2.16,0.84 1.24,0.44 2.84,0.96 1.6,0.48 3,1.4 1.44,0.88 2.4,2.28 1,1.4 1,3.6 0,1.76 -0.68,3.2 -0.64,1.44 -1.8,2.48 -1.16,1 -2.72,1.56 -1.52,0.52 -3.24,0.52 -1.56,0 -2.88,-0.4 -1.28,-0.44 -2.28,-1 -1,-0.6 -1.72,-1.2 -0.72,-0.64 -1.12,-1.08 l 0.8,-0.8 q 0.56,0.6 1.28,1.2 0.72,0.6 1.6,1.08 0.88,0.48 1.92,0.8 1.04,0.32 2.28,0.32 1.44,0 2.76,-0.44 1.36,-0.48 2.4,-1.32 1.04,-0.84 1.64,-2.04 0.64,-1.24 0.64,-2.76 0,-1.84 -0.8,-3.04 -0.8,-1.24 -2.04,-2.04 -1.2,-0.8 -2.64,-1.28 -1.44,-0.48 -2.76,-0.92 -0.72,-0.2 -1.76,-0.56 -1.04,-0.4 -2,-1.08 -0.96,-0.72 -1.68,-1.76 -0.68,-1.08 -0.76,-2.68 -0.08,-1.32 0.28,-2.64 0.4,-1.36 1.24,-2.44 0.88,-1.08 2.24,-1.72 1.4,-0.68 3.32,-0.68 1.52,0 3.04,0.52 1.52,0.52 3.12,1.88 z"
         style="font-style:normal;font-variant:normal;font-weight:normal;font-stretch:normal;font-family:'Josefin Sans';-inkscape-font-specification:'Josefin Sans'"
         id="path4505" />
      <path
         inkscape:connector-curvature="0"
         d="m 235.85148,655.7943 q 0.2,0.2 0.32,0.36 0.16,0.16 0.36,0.36 -1.52,1.4 -2.88,2.72 -1.32,1.28 -2.8,2.68 l 6.72,9.24 h -1.32 q -1.56,-2.16 -3.16,-4.24 -1.56,-2.08 -3.12,-4.24 -0.68,0.64 -1.36,1.32 -0.68,0.64 -1.4,1.28 v 5.88 h -1.08 v -30 h 1.08 v 22.68 q 2.24,-2.08 4.32,-4 2.08,-1.96 4.32,-4.04 z"
         style="font-style:normal;font-variant:normal;font-weight:normal;font-stretch:normal;font-family:'Josefin Sans';-inkscape-font-specification:'Josefin Sans'"
         id="path4507" />
      <path
         inkscape:connector-curvature="0"
         d="m 246.30023,681.1543 h -1.28 q 1.28,-2.48 2.48,-4.96 1.24,-2.44 2.48,-4.92 l -7.56,-15.12 h 1.24 q 1.76,3.48 3.52,6.96 1.76,3.48 3.44,7 1.64,-3.52 3.4,-7 1.76,-3.48 3.52,-6.96 h 1.24 q -3.12,6.28 -6.24,12.52 -3.12,6.2 -6.24,12.48 z"
         style="font-style:normal;font-variant:normal;font-weight:normal;font-stretch:normal;font-family:'Josefin Sans';-inkscape-font-specification:'Josefin Sans'"
         id="path4509" />
      <path
         inkscape:connector-curvature="0"
         d="m 263.87148,671.1543 v -28 h 1.12 v 26.92 h 15.84 v 1.08 z"
         style="font-style:normal;font-variant:normal;font-weight:normal;font-stretch:normal;font-family:'Josefin Sans';-inkscape-font-specification:'Josefin Sans'"
         id="path4511" />
      <path
         inkscape:connector-curvature="0"
         d="m 286.74148,650.9943 q 0,-0.44 0.32,-0.76 0.32,-0.32 0.76,-0.32 0.4,0 0.72,0.32 0.32,0.32 0.32,0.76 0,0.44 -0.32,0.76 -0.32,0.28 -0.72,0.28 -0.44,0 -0.76,-0.28 -0.32,-0.32 -0.32,-0.76 z m 1.6,20.16 h -1.12 v -15 h 1.12 z"
         style="font-style:normal;font-variant:normal;font-weight:normal;font-stretch:normal;font-family:'Josefin Sans';-inkscape-font-specification:'Josefin Sans'"
         id="path4513" />
      <path
         inkscape:connector-curvature="0"
         d="m 294.44523,663.6343 q 0,1.4 0.52,2.64 0.52,1.2 1.4,2.12 0.92,0.88 2.12,1.4 1.24,0.52 2.64,0.52 1.4,0 2.64,-0.52 1.24,-0.52 2.16,-1.4 0.92,-0.92 1.44,-2.12 0.52,-1.24 0.52,-2.64 0,-1.4 -0.52,-2.6 -0.52,-1.24 -1.44,-2.16 -0.92,-0.92 -2.16,-1.44 -1.24,-0.52 -2.64,-0.52 -1.4,0 -2.64,0.52 -1.2,0.52 -2.12,1.44 -0.88,0.92 -1.4,2.16 -0.52,1.2 -0.52,2.6 z m 13.68,-7.48 h 0.84 v 15.72 0.32 q 0,2.12 -0.6,3.76 -0.56,1.64 -1.6,2.76 -1,1.16 -2.36,1.76 -1.36,0.64 -2.92,0.68 -1.68,-0.08 -3.4,-0.64 -1.68,-0.52 -2.72,-1.76 0.2,-0.2 0.4,-0.4 0.24,-0.16 0.44,-0.36 0.92,1.08 2.36,1.56 1.48,0.48 2.88,0.48 1.32,0 2.48,-0.56 1.2,-0.56 2.04,-1.6 0.88,-1 1.4,-2.44 0.52,-1.44 0.52,-3.2 v -2.96 q 0,-0.56 0.04,-1.08 0.04,-0.52 0.04,-1.08 -0.36,0.88 -1.04,1.68 -0.64,0.76 -1.52,1.36 -0.88,0.56 -2,0.92 -1.08,0.32 -2.28,0.32 -1.64,0 -3.08,-0.6 -1.4,-0.6 -2.48,-1.64 -1.04,-1.08 -1.64,-2.48 -0.6,-1.4 -0.6,-3.04 0,-1.6 0.6,-3 0.6,-1.44 1.64,-2.48 1.08,-1.08 2.48,-1.68 1.44,-0.64 3.08,-0.64 1.2,0 2.28,0.36 1.08,0.32 1.96,0.92 0.92,0.6 1.56,1.4 0.68,0.8 1.04,1.68 0,-1 0.04,-2 0.04,-1 0.12,-2.04 z"
         style="font-style:normal;font-variant:normal;font-weight:normal;font-stretch:normal;font-family:'Josefin Sans';-inkscape-font-specification:'Josefin Sans'"
         id="path4515" />
      <path
         inkscape:connector-curvature="0"
         d="m 316.46836,641.1543 h 1.12 v 17.12 l -0.12,1.8 q 0.8,-1.92 2.52,-3.04 1.76,-1.16 4.04,-1.16 2.16,0 3.4,1.24 1.28,1.24 1.36,3.24 v 10.8 h -1.12 v -10.72 q -0.08,-1.4 -1,-2.4 -0.92,-1 -2.64,-1.08 -1.28,0 -2.48,0.44 -1.16,0.4 -2.04,1.16 -0.88,0.76 -1.4,1.84 -0.52,1.04 -0.52,2.28 v 8.48 h -1.12 z"
         style="font-style:normal;font-variant:normal;font-weight:normal;font-stretch:normal;font-family:'Josefin Sans';-inkscape-font-specification:'Josefin Sans'"
         id="path4517" />
      <path
         inkscape:connector-curvature="0"
         d="m 336.87773,646.3943 h 1.08 v 9.96 h 4.88 v 1.08 h -4.88 v 13.72 h -1.08 v -13.72 h -3.52 v -1.08 h 3.52 z"
         style="font-style:normal;font-variant:normal;font-weight:normal;font-stretch:normal;font-family:'Josefin Sans';-inkscape-font-specification:'Josefin Sans'"
         id="path4519" />
      <path
         inkscape:connector-curvature="0"
         d="m 362.92773,671.1543 h -16 v -1.08 h 16 z"
         style="font-style:normal;font-variant:normal;font-weight:normal;font-stretch:normal;font-family:'Josefin Sans';-inkscape-font-specification:'Josefin Sans'"
         id="path4521" />
      <path
         inkscape:connector-curvature="0"
         d="m 382.07211,645.4343 -0.36,-1.08 q -1.24,3.44 -2.72,6.76 -1.44,3.28 -2.84,6.64 h 11.12 q -1.28,-3.12 -2.6,-6.16 -1.28,-3.04 -2.6,-6.16 z m 12.04,25.72 h -1.12 q -1.32,-3.08 -2.64,-6.16 -1.28,-3.08 -2.6,-6.16 h -12.08 q -1.28,3.08 -2.6,6.16 -1.28,3.08 -2.6,6.16 h -1.16 q 3.12,-7.36 6.2,-14.64 3.08,-7.28 6.2,-14.64 3.12,7.36 6.2,14.64 3.08,7.28 6.2,14.64 z"
         style="font-style:normal;font-variant:normal;font-weight:normal;font-stretch:normal;font-family:'Josefin Sans';-inkscape-font-specification:'Josefin Sans'"
         id="path4523" />
      <path
         inkscape:connector-curvature="0"
         d="m 400.92148,656.1543 h 1.04 v 1.76 q -0.04,0.56 -0.04,1.08 0,0.52 0,1.08 0.8,-1.92 2.56,-3.04 1.76,-1.16 4,-1.16 2.16,0 3.4,1.24 1.28,1.24 1.36,3.24 v 10.8 h -1.12 v -10.72 q -0.08,-1.4 -1,-2.4 -0.92,-1 -2.64,-1.08 -1.28,0 -2.48,0.44 -1.16,0.4 -2.04,1.16 -0.88,0.76 -1.4,1.84 -0.52,1.04 -0.52,2.28 v 8.48 h -1.12 z"
         style="font-style:normal;font-variant:normal;font-weight:normal;font-stretch:normal;font-family:'Josefin Sans';-inkscape-font-specification:'Josefin Sans'"
         id="path4525" />
      <path
         inkscape:connector-curvature="0"
         d="m 419.00711,650.9943 q 0,-0.44 0.32,-0.76 0.32,-0.32 0.76,-0.32 0.4,0 0.72,0.32 0.32,0.32 0.32,0.76 0,0.44 -0.32,0.76 -0.32,0.28 -0.72,0.28 -0.44,0 -0.76,-0.28 -0.32,-0.32 -0.32,-0.76 z m 1.6,20.16 h -1.12 v -15 h 1.12 z"
         style="font-style:normal;font-variant:normal;font-weight:normal;font-stretch:normal;font-family:'Josefin Sans';-inkscape-font-specification:'Josefin Sans'"
         id="path4527" />
      <path
         inkscape:connector-curvature="0"
         d="m 428.03086,656.1543 h 1.04 v 1.76 q -0.04,0.56 -0.04,1.08 0,0.52 0,1.08 0.8,-1.92 2.52,-3.04 1.76,-1.16 4.04,-1.16 2.04,0 3.28,1.12 1.24,1.08 1.44,2.88 0.84,-1.8 2.56,-2.88 1.76,-1.12 3.96,-1.12 2.16,0 3.4,1.24 1.24,1.24 1.32,3.24 v 10.8 h -1.12 v -10.72 q -0.08,-1.4 -1,-2.4 -0.92,-1 -2.64,-1.08 -1.28,0 -2.44,0.44 -1.12,0.4 -2,1.12 -0.88,0.72 -1.44,1.76 -0.52,1 -0.56,2.2 v 8.68 h -1.12 v -10.72 q -0.08,-1.4 -1,-2.4 -0.92,-1 -2.64,-1.08 -1.28,0 -2.48,0.44 -1.16,0.4 -2.04,1.16 -0.88,0.76 -1.4,1.84 -0.52,1.04 -0.52,2.28 v 8.48 h -1.12 z"
         style="font-style:normal;font-variant:normal;font-weight:normal;font-stretch:normal;font-family:'Josefin Sans';-inkscape-font-specification:'Josefin Sans'"
         id="path4529" />
      <path
         inkscape:connector-curvature="0"
         d="m 458.58586,663.6343 q 0,1.4 0.52,2.64 0.52,1.2 1.4,2.12 0.92,0.88 2.12,1.4 1.24,0.52 2.64,0.52 1.4,0 2.64,-0.52 1.24,-0.52 2.16,-1.4 0.92,-0.92 1.44,-2.12 0.52,-1.24 0.52,-2.64 0,-1.4 -0.52,-2.6 -0.52,-1.24 -1.44,-2.16 -0.92,-0.92 -2.16,-1.44 -1.24,-0.52 -2.64,-0.52 -1.4,0 -2.64,0.52 -1.2,0.52 -2.12,1.44 -0.88,0.92 -1.4,2.16 -0.52,1.2 -0.52,2.6 z m -1.12,0 q 0,-1.6 0.6,-3 0.6,-1.44 1.64,-2.48 1.08,-1.08 2.48,-1.68 1.44,-0.64 3.08,-0.64 1.2,0 2.28,0.36 1.08,0.32 1.96,0.92 0.92,0.6 1.56,1.4 0.68,0.8 1.04,1.68 0,-1 0.04,-2 0.04,-1 0.12,-2.04 h 0.84 v 15 h -1 v -2 -2.08 q -0.68,1.8 -2.52,3.08 -1.8,1.24 -4.32,1.28 -1.64,0 -3.08,-0.6 -1.4,-0.64 -2.48,-1.68 -1.04,-1.04 -1.64,-2.44 -0.6,-1.44 -0.6,-3.08 z"
         style="font-style:normal;font-variant:normal;font-weight:normal;font-stretch:normal;font-family:'Josefin Sans';-inkscape-font-specification:'Josefin Sans'"
         id="path4531" />
      <path
         inkscape:connector-curvature="0"
         d="m 480.70586,646.3943 h 1.08 v 9.96 h 4.88 v 1.08 h -4.88 v 13.72 h -1.08 v -13.72 h -3.52 v -1.08 h 3.52 z"
         style="font-style:normal;font-variant:normal;font-weight:normal;font-stretch:normal;font-family:'Josefin Sans';-inkscape-font-specification:'Josefin Sans'"
         id="path4533" />
      <path
         inkscape:connector-curvature="0"
         d="m 489.47586,650.9943 q 0,-0.44 0.32,-0.76 0.32,-0.32 0.76,-0.32 0.4,0 0.72,0.32 0.32,0.32 0.32,0.76 0,0.44 -0.32,0.76 -0.32,0.28 -0.72,0.28 -0.44,0 -0.76,-0.28 -0.32,-0.32 -0.32,-0.76 z m 1.6,20.16 h -1.12 v -15 h 1.12 z"
         style="font-style:normal;font-variant:normal;font-weight:normal;font-stretch:normal;font-family:'Josefin Sans';-inkscape-font-specification:'Josefin Sans'"
         id="path4535" />
      <path
         inkscape:connector-curvature="0"
         d="m 495.53961,663.6343 q 0,-1.6 0.6,-3.04 0.64,-1.44 1.68,-2.48 1.04,-1.08 2.44,-1.68 1.44,-0.64 3.08,-0.64 1.64,0 3.08,0.64 1.44,0.6 2.48,1.68 1.08,1.04 1.68,2.48 0.64,1.44 0.64,3.04 0,1.64 -0.64,3.08 -0.6,1.4 -1.68,2.44 -1.04,1.04 -2.48,1.68 -1.44,0.6 -3.08,0.6 -1.64,0 -3.08,-0.6 -1.4,-0.64 -2.44,-1.68 -1.04,-1.04 -1.68,-2.44 -0.6,-1.44 -0.6,-3.08 z m 1.12,0 q 0,1.4 0.52,2.64 0.52,1.2 1.4,2.12 0.92,0.88 2.12,1.4 1.24,0.52 2.64,0.52 1.4,0 2.6,-0.52 1.24,-0.52 2.16,-1.4 0.92,-0.92 1.44,-2.12 0.52,-1.24 0.52,-2.64 0,-1.4 -0.52,-2.6 -0.52,-1.24 -1.44,-2.16 -0.92,-0.92 -2.16,-1.44 -1.2,-0.52 -2.6,-0.52 -1.4,0 -2.64,0.52 -1.2,0.52 -2.12,1.44 -0.88,0.92 -1.4,2.16 -0.52,1.2 -0.52,2.6 z"
         style="font-style:normal;font-variant:normal;font-weight:normal;font-stretch:normal;font-family:'Josefin Sans';-inkscape-font-specification:'Josefin Sans'"
         id="path4537" />
      <path
         inkscape:connector-curvature="0"
         d="m 517.24961,656.1543 h 1.04 v 1.76 q -0.04,0.56 -0.04,1.08 0,0.52 0,1.08 0.8,-1.92 2.56,-3.04 1.76,-1.16 4,-1.16 2.16,0 3.4,1.24 1.28,1.24 1.36,3.24 v 10.8 h -1.12 v -10.72 q -0.08,-1.4 -1,-2.4 -0.92,-1 -2.64,-1.08 -1.28,0 -2.48,0.44 -1.16,0.4 -2.04,1.16 -0.88,0.76 -1.4,1.84 -0.52,1.04 -0.52,2.28 v 8.48 h -1.12 z"
         style="font-style:normal;font-variant:normal;font-weight:normal;font-stretch:normal;font-family:'Josefin Sans';-inkscape-font-specification:'Josefin Sans'"
         id="path4539" />
    </g>
    <circle
       style="display:inline;opacity:1;fill:#555554;fill-opacity:1;stroke:#2c2c2c;stroke-width:0.45968577;stroke-linejoin:round;stroke-miterlimit:4;stroke-dasharray:none;stroke-opacity:1"
       id="path5365-8"
       cx="9.245759"
       cy="276.80939"
       r="1.208431"
       inkscape:export-xdpi="96"
       inkscape:export-ydpi="96"
       inkscape:export-filename="D:\BLOG\Project Design\#Design\DG\path5365-6-7.png" />
    <circle
       style="display:inline;opacity:1;fill:#555554;fill-opacity:1;stroke:#2c2c2c;stroke-width:0.45968577;stroke-linejoin:round;stroke-miterlimit:4;stroke-dasharray:none;stroke-opacity:1"
       id="path5365-6-7"
       cx="125.18678"
       cy="292.86679"
       r="1.208431"
       inkscape:export-xdpi="96"
       inkscape:export-ydpi="96"
       inkscape:export-filename="D:\BLOG\Project Design\#Design\DG\path5365-6-7.png" />
  </g>
</svg>
